<!--- <a href="https://www.artstation.com/"> --->
<svg id="circle-svg-artstation-blue"
  width="35" height="35"
  viewBox="0 0 210 200"
  version="1.1"
  xmlns="http://www.w3.org/2000/svg"
  role="link button img"
  preserveAspectRatio="xMidYMid meet">
  <!--- Color Classes --->
  <style type="text/css">
    .color-artstation-blue {
      fill: #13AFF0;
    }
    .color-white {
      fill: #ffffff;
    }
  </style>
  <!--- Background --->
  <circle id="bg-artstation-blue"
    class="color-artstation-blue"
    cx="105" cy="100" r="105" />
  <!--- Logo --->
  <g id="logo-artstation-group-blue"
    class="color-white"
    transform="scale(1,1) translate(0,-6.5)">
    <path id="logo-artstation-bottom-blue"
      d="M51.4,123.3l8.9,15.4l0,0c1.8,3.5,5.4,5.9,9.5,5.9l0,0l0,0h59.3l-12.3-21.3H51.4z" />
    <path id="logo-artstation-right-blue"
      d="M157.2,123.4c0-2.1-0.6-4.1-1.7-5.8l-34.8-60.4c-1.8-3.4-5.3-5.7-9.4-5.7H92.9l53.7,93l8.5-14.7 C156.7,127,157.2,125.8,157.2,123.4z" />
    <polygon id="logo-artstation-left-blue"
      points="108.1,108.1 84.2,66.6 60.2,108.1" />
  </g>
</svg>