<!--- <a href="https://bethesda.net/"> --->
<svg id="circle-svg-bethesda-black"
  width="35" height="35"
  viewBox="0 0 88 88"
  version="1.1"
  xmlns="http://www.w3.org/2000/svg"
  role="link button img"
  preserveAspectRatio="xMidYMid meet">
  <!--- Color Classes --->
  <style type="text/css">
    .color-black {
      fill: #000000;
    }
    .color-white {
      fill: #ffffff;
    }
  </style>
  <!--- Background --->
  <circle id="bg-bethesda-black"
    class="color-black"
    cx="44" cy="44" r="44" />
  <!--- Logo --->
  <path id="logo-bethesda-black"
    class="color-white"
    transform="scale(0.65,0.65) translate(20,40)"
    d="M0 0v24.9357h24.4435V0zm15.829 16.153H8.607V8.7864h7.222zm35.838 16.7727h11.0395c4.1589 0 6.1585 1.8351 6.1585 5.2025 0 4.3975-3.193 5.4388-6.8757 5.4388H51.667zM34.082 57.1614h32.384c10.081 0 19.994-5.9235 19.994-17.3563 0-8.3968-4.7982-12.4728-9.913-14.2375 4.2417-2.3125 7.0291-5.4375 7.0291-11.1916C83.5773 8.5328 80.3868.0618 65.3492.0618H34.082zm17.585-43.5088h9.281c3.5986 0 5.9953 1.0387 5.9953 3.9201 0 3.679-2.3187 4.7203-5.9953 4.7203h-9.281z" />
</svg>