<!--- <a href="https://digg.com/"> --->
<svg id="circle-svg-digg-blue"
  width="35" height="35"
  viewBox="0 0 100 60"
  version="1.1"
  xmlns="http://www.w3.org/2000/svg"
  role="link button img"
  preserveAspectRatio="xMidYMid meet">
  <!--- Color Classes --->
  <style type="text/css">
    .color-digg-blue {
      fill: #005be2;
    }
    .color-white {
      fill: #ffffff;
    }
  </style>
  <!--- Background --->
  <circle id="bg-digg-blue"
    class="color-digg-blue"
    cx="50" cy="30" r="50" />
  <!--- Logo --->
  <path id="logo-digg-blue"
    class="color-white"
    transform="scale(0.8,0.8) translate(3,10)"
    d="M34.696 18.733h-11.12v22.325h18.527V9.1h-7.408zm-.24 15.424H30.75v-9.173h3.706v9.173zm21.923 7.178h10.83v2.822H56.38V50.9h18.246V18.85H56.38zm6.926-15.403H67v9.173h-3.694zm14.87-7.08v22.476h10.83v2.822h-10.83v6.733H96.42V18.85zm10.62 16.255H85.1V25.93h3.694zM45.454 9.203h7.417v6.264h-7.417zm0 9.618h7.417v22.4h-7.417z" />
</svg>