<!-- <a href="https://www.disqus.com/"> -->
<svg id="circle-svg-disqus-blue"
  width="35" height="35"
  viewBox="0 0 200 200"
  version="1.1"
  xmlns="http://www.w3.org/2000/svg"
  role="link button img"
  preserveAspectRatio="xMidYMid meet">
  <title>Disqus</title>
  <!-- Color Classes -->
  <style type="text/css">
    .color-disqus-blue {
      fill: #2E9FFF;
    }
    .color-white {
      fill: #ffffff;
    }
  </style>
  <!-- Background -->
  <circle id="bg-disqus-blue"
    class="color-disqus-blue"
    cx="100" cy="100" r="100" />
  <!-- Logo -->
  <path id="logo-disqus-blue"
    class="color-white"
    transform="scale(0.8,0.8) translate(25,25)"
    d="M102.535,167.5c-16.518,0-31.621-6.036-43.298-16.021L30.5,155.405l11.102-27.401  c-3.868-8.535-6.038-18.01-6.038-28.004c0-37.277,29.984-67.5,66.971-67.5c36.984,0,66.965,30.223,66.965,67.5  C169.5,137.284,139.52,167.5,102.535,167.5z M139.102,99.807v-0.188c0-19.478-13.736-33.367-37.42-33.367h-25.58v67.5h25.201  C125.171,133.753,139.102,119.284,139.102,99.807L139.102,99.807z M101.964,117.168h-7.482V82.841h7.482  c10.989,0,18.283,6.265,18.283,17.07v0.188C120.247,110.995,112.953,117.168,101.964,117.168z" />
</svg>