<!-- <a href="http://facebook.com"> -->
<svg id="circle-svg-facebook-blue"
  width="35" height="35"
  viewBox="0 0 24 24"
  version="1.1"
  xmlns="http://www.w3.org/2000/svg"
  role="link button img"
  preserveAspectRatio="xMidYMid meet">
  <title>Facebook</title>
  <!-- Color Classes -->
  <style type="text/css">
    .color-facebook-blue {
      fill: #1778f2;
    }
    .color-white {
      fill: #ffffff;
    }
  </style>
  <!-- Background -->
  <circle id="bg-facebook-blue"
    class="color-facebook-blue"
    cx="12" cy="12" r="12" />
  <!-- Logo -->
  <path id="logo-facebook-blue"
    class="color-white"
    transform="scale(0.685,0.685) translate(5.5,5.5)"
    d="M12 2C6.5 2 2 6.5 2 12c0 5 3.7 9.1 8.4 9.9v-7H7.9V12h2.5V9.8c0-2.5 1.5-3.9 3.8-3.9 1.1 0 2.2.2 2.2.2v2.5h-1.3c-1.2 0-1.6.8-1.6 1.6V12h2.8l-.4 2.9h-2.3v7C18.3 21.1 22 17 22 12c0-5.5-4.5-10-10-10z" />
</svg>