<!-- <a href="https://games.app.goo.gl"> -->
<svg id="circle-svg-playgames-color-yellowgreen"
  width="35" height="35"
  viewBox="0 0 3600 3600"
  version="1.1"
  xmlns="http://www.w3.org/2000/svg"
  role="link button img"
  preserveAspectRatio="xMidYMid meet"
  xml:space="preserve">
  <title>Google Play Games</title>
  <!-- Color Classes -->
  <style type="text/css">
    .logo-playgames-clippath-color-yellowgreen {
      clip-path: url(#clippath-playgames-color-yellowgreen);
    }
    .color-playgames-yellowgreen {
      fill: #c1cd32;
    }
    .color-playgames-triangle-green {
      fill: #1E7D49;
    }
    .color-playgames-handle-left-green {
      fill: #00E26B;
    }
    .color-playgames-handle-right-green {
      fill: #00B058;
    }
    .color-white {
      fill: #ffffff;
    }
  </style>
  <!-- Define a clip path for overlapping pieces of the logo to follow. -->
  <defs>
    <clipPath id="clippath-playgames-color-yellowgreen">
      <path id="logo-playgames-clippath-path-color-yellowgreen"
        transform="translate(150,0)"
        d="M1082.01 836.24l1541.61 877.72c31.81,18.11 50.06,49.54 50.02,86.14 -0.04,36.6 -18.36,68 -50.2,86.04l-407.74 231 -1141.55 646.72c-31.57,17.89 -67.53,17.63 -98.84,-0.71l-0.31 -0.18 -0.31 -0.19c-5.61,-3.31 -10.76,-7.05 -15.44,-11.17l-0 0 -0.5 -0.45 -0.01 0 -0.25 -0.23 -0.25 -0.22 0 -0 -0.25 -0.22 0 -0.01 -0.25 -0.22 -0 0 -0.25 -0.23 -0.74 -0.69 -0.2 -0.19 -0.93 -0.88 -0.04 -0.05 -0.87 -0.85 -0.28 -0.28 -0.62 -0.63 -0.51 -0.52 -0.37 -0.39 -0.73 -0.78 -0.14 -0.15 -0.86 -0.93 -0.09 -0.1 -0.75 -0.84 -0.31 -0.35 -0.92 -1.07 -0.12 -0.14 -0.3 -0.35 -0.72 -0.87 -0.08 -0.1 -0.79 -0.98 -0.13 -0.16 -0.65 -0.83 -0.33 -0.43 -0.43 -0.57 -0.52 -0.7 -0.23 -0.31 -0.7 -0.98 -0.03 -0.04 -0.72 -1.02 -0.15 -0.23 -0.55 -0.81 -0.33 -0.5 -0.74 -1.15 -0.12 -0.18 -0.17 -0.27 -0.66 -1.06 -0.01 -0.02 -0.64 -1.06 -0.18 -0.3 -0.46 -0.78 -0.34 -0.59 -0.28 -0.5 -0.49 -0.88 -0.12 -0.21 -0.59 -1.1 -0.04 -0.07 -0.53 -1.04 -0.19 -0.37 -0.37 -0.74 -0.33 -0.67 -0.22 -0.45 -0.46 -0.98 -0.07 -0.15 -0.52 -1.15 -0.06 -0.14 -0.44 -1 -0.19 -0.45 -0.29 -0.7 -0.31 -0.76 -0.17 -0.4 -0.42 -1.08 -0.03 -0.09 -0.45 -1.18 -0.08 -0.22 -0.35 -0.97 -0.19 -0.54 -0.22 -0.65 -0.29 -0.86 -0.11 -0.34 -0.37 -1.18 -0.01 -0.03 -0.37 -1.21 -0.09 -0.3 -0.26 -0.93 -0.17 -0.62 -0.17 -0.6 -0.24 -0.95 -0.07 -0.28 -0.31 -1.24 -0.01 -0.04 -0.28 -1.2 -0.09 -0.37 -0.19 -0.87 -0.15 -0.71 -0.11 -0.55 -0.2 -1.05 -0.04 -0.22 -0.22 -1.27 -0.02 -0.12 -0.19 -1.15 -0.07 -0.45 -0.13 -0.83 -0.11 -0.8 -0.06 -0.49 -0.15 -1.15 -0.02 -0.15 -0.15 -1.3 -0.02 -0.19 -0.11 -1.11 -0.05 -0.54 -0.06 -0.77 -0.07 -0.89 -0.11 -1.67 -0 -0.07 -0.06 -1.33 -0.02 -0.28 -0.02 -0.42 -0.07 -2.9 0 -0.06 -0 -0.35 0 -1.34 7.67 -1755.43 0.01 -1 0.01 -0.69 0 -0.31 0.03 -1 0.01 -0.37 0.06 -1.35 0.02 -0.28 0 -0.05 0.06 -0.94 0.04 -0.73 0.02 -0.25 0.07 -0.99 0.03 -0.43 0.13 -1.47 0.01 -0.06 0.01 -0.11 0.09 -0.86 0.08 -0.78 0.02 -0.19 0.03 -0.2 0.15 -1.25 0.06 -0.49 0.13 -0.96 0.02 -0.17 0.01 -0.06 0.24 -1.56 0.02 -0.13 0.17 -0.95 0.09 -0.53 0.25 -1.37 0.04 -0.22 0.15 -0.72 0.18 -0.87 0.02 -0.07 0.21 -0.94 0.13 -0.57 0.08 -0.36 0.22 -0.93 0.07 -0.28 0.4 -1.55 0 -0.02 0.25 -0.92 0.17 -0.61 0.08 -0.3 0.27 -0.91 0.09 -0.32 0.18 -0.58 0.28 -0.9 0.02 -0.04 0.28 -0.86 0.22 -0.65 0.08 -0.24 0.31 -0.89 0.13 -0.37 0.19 -0.52 0.32 -0.89 0.04 -0.09 0.3 -0.78 0.27 -0.69 0.07 -0.19 0.52 -1.28 0.19 -0.45 0.37 -0.87 0.06 -0.14 0.03 -0.07 0.61 -1.37 0.06 -0.13 0.39 -0.85 0.21 -0.46 0 -0.01 0.59 -1.22 0.09 -0.19 0.32 -0.65 0.39 -0.76 0.04 -0.07 0.43 -0.83 0.26 -0.49 0.18 -0.33 0.58 -1.05 0.33 -0.59c0.61,-1.08 1.25,-2.15 1.91,-3.21l0.17 -0.27 0.33 -0.52 0.5 -0.79 0.02 -0.02c0.84,-1.3 1.72,-2.57 2.62,-3.83l0.38 -0.52 0.38 -0.52 0.39 -0.52 0.39 -0.51 0.39 -0.51 0.4 -0.51 0.4 -0.5 0.4 -0.5 0 0 0.4 -0.5 0 0 0.41 -0.5 0 0 0.41 -0.5 0.42 -0.49 0.42 -0.49 0.43 -0.48 0.43 -0.49 0 0 0.43 -0.48 0 0 0.43 -0.48 0 0 0.44 -0.48 0 0 0.44 -0.48 0.44 -0.47 0.45 -0.47 0.46 -0.47 0.46 -0.46 0.46 -0.46 0.46 -0.46 0.46 -0.46 0 0 0.46 -0.45 0.01 0 0.47 -0.45 0 0 0.48 -0.45 0.48 -0.44 0 0 0.48 -0.44 0.01 0 0.48 -0.44 0.49 -0.44 0.01 0 0.49 -0.44 0 0 0.5 -0.43 0 0 0.5 -0.43 0.51 -0.43 0.51 -0.43 0.51 -0.42 0 0 0.52 -0.41 0.52 -0.42 0.52 -0.42 0.53 -0.41 0.53 -0.41 0.53 -0.4 0.54 -0.41 0.54 -0.4 0.54 -0.39 0.55 -0.39 0.55 -0.39 0.55 -0.39 0.56 -0.39 0.56 -0.38 0.57 -0.38 0.56 -0.37 0.57 -0.37 0.57 -0.37 0.58 -0.37 0.58 -0.36 0.58 -0.36 0.59 -0.36 0.59 -0.35 0.59 -0.35 0.59 -0.35c31.31,-18.11 67.13,-18.24 98.56,-0.34z" />
    </clipPath>
  </defs>
  <!-- Background -->
  <circle id="bg-playgames-color-yellowgreen"
    class="color-playgames-yellowgreen"
    cx="1800" cy="1800" r="1800" />
  <!-- Logo; Background Triangle -->
  <path id="logo-playgames-triangle-color-yellowgreen"
    class="color-playgames-triangle-green"
    transform="translate(150,0)"
    d="M1082.01 836.24l1541.61 877.72c31.81,18.11 50.06,49.54 50.02,86.14 -0.04,36.6 -18.36,68 -50.2,86.04l-407.74 231 -1141.55 646.72c-31.57,17.89 -67.53,17.63 -98.84,-0.71l-0.31 -0.18 -0.31 -0.19c-5.61,-3.31 -10.76,-7.05 -15.44,-11.17l-0 0 -0.5 -0.45 -0.01 0 -0.25 -0.23 -0.25 -0.22 0 -0 -0.25 -0.22 0 -0.01 -0.25 -0.22 -0 0 -0.25 -0.23 -0.74 -0.69 -0.2 -0.19 -0.93 -0.88 -0.04 -0.05 -0.87 -0.85 -0.28 -0.28 -0.62 -0.63 -0.51 -0.52 -0.37 -0.39 -0.73 -0.78 -0.14 -0.15 -0.86 -0.93 -0.09 -0.1 -0.75 -0.84 -0.31 -0.35 -0.92 -1.07 -0.12 -0.14 -0.3 -0.35 -0.72 -0.87 -0.08 -0.1 -0.79 -0.98 -0.13 -0.16 -0.65 -0.83 -0.33 -0.43 -0.43 -0.57 -0.52 -0.7 -0.23 -0.31 -0.7 -0.98 -0.03 -0.04 -0.72 -1.02 -0.15 -0.23 -0.55 -0.81 -0.33 -0.5 -0.74 -1.15 -0.12 -0.18 -0.17 -0.27 -0.66 -1.06 -0.01 -0.02 -0.64 -1.06 -0.18 -0.3 -0.46 -0.78 -0.34 -0.59 -0.28 -0.5 -0.49 -0.88 -0.12 -0.21 -0.59 -1.1 -0.04 -0.07 -0.53 -1.04 -0.19 -0.37 -0.37 -0.74 -0.33 -0.67 -0.22 -0.45 -0.46 -0.98 -0.07 -0.15 -0.52 -1.15 -0.06 -0.14 -0.44 -1 -0.19 -0.45 -0.29 -0.7 -0.31 -0.76 -0.17 -0.4 -0.42 -1.08 -0.03 -0.09 -0.45 -1.18 -0.08 -0.22 -0.35 -0.97 -0.19 -0.54 -0.22 -0.65 -0.29 -0.86 -0.11 -0.34 -0.37 -1.18 -0.01 -0.03 -0.37 -1.21 -0.09 -0.3 -0.26 -0.93 -0.17 -0.62 -0.17 -0.6 -0.24 -0.95 -0.07 -0.28 -0.31 -1.24 -0.01 -0.04 -0.28 -1.2 -0.09 -0.37 -0.19 -0.87 -0.15 -0.71 -0.11 -0.55 -0.2 -1.05 -0.04 -0.22 -0.22 -1.27 -0.02 -0.12 -0.19 -1.15 -0.07 -0.45 -0.13 -0.83 -0.11 -0.8 -0.06 -0.49 -0.15 -1.15 -0.02 -0.15 -0.15 -1.3 -0.02 -0.19 -0.11 -1.11 -0.05 -0.54 -0.06 -0.77 -0.07 -0.89 -0.11 -1.67 -0 -0.07 -0.06 -1.33 -0.02 -0.28 -0.02 -0.42 -0.07 -2.9 0 -0.06 -0 -0.35 0 -1.34 7.67 -1755.43 0.01 -1 0.01 -0.69 0 -0.31 0.03 -1 0.01 -0.37 0.06 -1.35 0.02 -0.28 0 -0.05 0.06 -0.94 0.04 -0.73 0.02 -0.25 0.07 -0.99 0.03 -0.43 0.13 -1.47 0.01 -0.06 0.01 -0.11 0.09 -0.86 0.08 -0.78 0.02 -0.19 0.03 -0.2 0.15 -1.25 0.06 -0.49 0.13 -0.96 0.02 -0.17 0.01 -0.06 0.24 -1.56 0.02 -0.13 0.17 -0.95 0.09 -0.53 0.25 -1.37 0.04 -0.22 0.15 -0.72 0.18 -0.87 0.02 -0.07 0.21 -0.94 0.13 -0.57 0.08 -0.36 0.22 -0.93 0.07 -0.28 0.4 -1.55 0 -0.02 0.25 -0.92 0.17 -0.61 0.08 -0.3 0.27 -0.91 0.09 -0.32 0.18 -0.58 0.28 -0.9 0.02 -0.04 0.28 -0.86 0.22 -0.65 0.08 -0.24 0.31 -0.89 0.13 -0.37 0.19 -0.52 0.32 -0.89 0.04 -0.09 0.3 -0.78 0.27 -0.69 0.07 -0.19 0.52 -1.28 0.19 -0.45 0.37 -0.87 0.06 -0.14 0.03 -0.07 0.61 -1.37 0.06 -0.13 0.39 -0.85 0.21 -0.46 0 -0.01 0.59 -1.22 0.09 -0.19 0.32 -0.65 0.39 -0.76 0.04 -0.07 0.43 -0.83 0.26 -0.49 0.18 -0.33 0.58 -1.05 0.33 -0.59c0.61,-1.08 1.25,-2.15 1.91,-3.21l0.17 -0.27 0.33 -0.52 0.5 -0.79 0.02 -0.02c0.84,-1.3 1.72,-2.57 2.62,-3.83l0.38 -0.52 0.38 -0.52 0.39 -0.52 0.39 -0.51 0.39 -0.51 0.4 -0.51 0.4 -0.5 0.4 -0.5 0 0 0.4 -0.5 0 0 0.41 -0.5 0 0 0.41 -0.5 0.42 -0.49 0.42 -0.49 0.43 -0.48 0.43 -0.49 0 0 0.43 -0.48 0 0 0.43 -0.48 0 0 0.44 -0.48 0 0 0.44 -0.48 0.44 -0.47 0.45 -0.47 0.46 -0.47 0.46 -0.46 0.46 -0.46 0.46 -0.46 0.46 -0.46 0 0 0.46 -0.45 0.01 0 0.47 -0.45 0 0 0.48 -0.45 0.48 -0.44 0 0 0.48 -0.44 0.01 0 0.48 -0.44 0.49 -0.44 0.01 0 0.49 -0.44 0 0 0.5 -0.43 0 0 0.5 -0.43 0.51 -0.43 0.51 -0.43 0.51 -0.42 0 0 0.52 -0.41 0.52 -0.42 0.52 -0.42 0.53 -0.41 0.53 -0.41 0.53 -0.4 0.54 -0.41 0.54 -0.4 0.54 -0.39 0.55 -0.39 0.55 -0.39 0.55 -0.39 0.56 -0.39 0.56 -0.38 0.57 -0.38 0.56 -0.37 0.57 -0.37 0.57 -0.37 0.58 -0.37 0.58 -0.36 0.58 -0.36 0.59 -0.36 0.59 -0.35 0.59 -0.35 0.59 -0.35c31.31,-18.11 67.13,-18.24 98.56,-0.34z" />
  <!-- Logo on top of Triangle; Right Handle uses clip path to designate edges to not overlap -->
  <g id="logo-playgames-group-handle-right-color-yellowgreen"
    class="logo-playgames-clippath-color-yellowgreen">
    <path id="logo-playgames-handle-right-color-yellowgreen"
      class="color-playgames-handle-right-green"
      transform="translate(150,0)"
      d="M2179.19 1233.56l-532.74 0c-190.63,0 -346.6,155.97 -346.6,346.6l0 0c0,190.64 155.97,346.6 346.6,346.6l400.26 0 325.59 332.32c46.24,47.2 114.95,58.37 173.76,28.26 58.81,-30.11 89.91,-92.39 78.65,-157.49l-100.2 -579.44 -0.02 0.01c-15.21,-176.85 -164.69,-316.86 -345.3,-316.86z" />
  </g>
  <!-- Logo on top of Triangle; minus Right Handle -->
  <g id="logo-playgames-group-translation-color-yellowgreen"
    transform="translate(150,0)">
    <path id="logo-playgames-handle-left-color-yellowgreen"
      class="color-playgames-handle-left-green"
      d="M1584.24 1146.89l532.74 0c190.63,0 346.6,155.97 346.6,346.6l0 0c0,190.64 -155.97,346.61 -346.6,346.61l-400.26 0 -325.59 332.31c-46.24,47.2 -114.95,58.37 -173.76,28.26 -58.81,-30.11 -89.91,-92.39 -78.65,-157.49l100.2 -579.44 0.02 0.01c15.21,-176.85 164.69,-316.86 345.31,-316.86z" />
    <polygon id="logo-playgames-dpad-color-yellowgreen"
      class="color-white"
      points="1544.13,1342.05 1625.33,1342.05 1625.33,1460.58 1743.86,1460.58 1743.86,1541.79 1625.33,1541.79 1625.33,1660.32 1544.13,1660.32 1544.13,1541.79 1425.59,1541.79 1425.59,1460.58 1544.13,1460.58 " />
    <circle id="logo-playgames-button-top-color-yellowgreen"
      class="color-white"
      cx="2118.46" cy="1386.58" r="54.03" />
    <circle id="logo-playgames-button-bottom-color-yellowgreen"
      class="color-white"
      cx="2118.46" cy="1628.13" r="54.03" />
    <circle id="logo-playgames-button-left-color-yellowgreen"
      class="color-white"
      cx="1996" cy="1501.19" r="54.03" />
    <circle id="logo-playgames-button-right-color-yellowgreen"
      class="color-white"
      cx="2238.3" cy="1501.19" r="54.03" />
  </g>
</svg>