<!-- <a href="https://www.kickstarter.com"> -->
<svg id="circle-svg-kickstarter-green"
  width="35" height="35"
  viewBox="0 0 32 32"
  version="1.1"
  xmlns="http://www.w3.org/2000/svg"
  role="link button img"
  preserveAspectRatio="xMidYMid meet">
  <title>Kickstarter</title>
  <!-- Color Classes -->
  <style type="text/css">
    .color-kickstarter-green {
      fill: #05CE78;
    }
    .color-white {
      fill: #ffffff;
    }
  </style>
  <!-- Background -->
  <circle id="bg-kickstarter-green"
    class="color-kickstarter-green"
    cx="16" cy="16" r="16" />
  <!-- Logo -->
  <path id="logo-kickstarter-green"
    class="color-white"
    transform="scale(0.55,0.55) translate(13.8,12.5)"
    d="M12.807 10.906l5.865-8.505C19.787.802 21.214 0 22.974 0c1.432 0 2.672.51 3.719 1.526c1.047 1.021 1.568 2.234 1.568 3.651c0 1.042-.276 1.969-.833 2.771l-5.286 7.693l6.469 8.203c.646.818.969 1.776.969 2.865c0 1.448-.505 2.693-1.526 3.734C27.038 31.479 25.809 32 24.361 32c-1.589 0-2.797-.516-3.63-1.547l-7.922-9.891v5.453c0 1.557-.271 2.766-.813 3.63c-.979 1.568-2.401 2.354-4.281 2.354c-1.708 0-3.036-.583-3.974-1.734c-.88-1.063-1.318-2.474-1.318-4.229V5.817c0-1.656.448-3.031 1.339-4.109C4.694.573 5.986 0 7.637 0c1.573 0 2.88.573 3.927 1.708c.583.635.953 1.271 1.109 1.922c.094.401.141 1.141.141 2.24v5.036z" />
</svg>