<!--- <a href="https://live.blockcypher.com/ltc/"> --->
<svg id="circle-svg-ltc-grey"
  width="35" height="35"
  viewBox="0 0 24 24"
  version="1.1"
  xmlns="http://www.w3.org/2000/svg"
  role="link button img"
  preserveAspectRatio="xMidYMid meet">
  <!--- Color Classes --->
  <style type="text/css">
    .color-ltc-grey {
      fill: #bebebe;
    }
    .color-white {
      fill: #ffffff;
    }
  </style>
  <!--- Background --->
  <circle id="bg-ltc-grey"
    class="color-ltc-grey"
    cx="12" cy="12" r="12" />
  <!--- Logo --->
  <path id="logo-ltc-grey"
    class="color-white"
    transform="scale(0.8,0.8) translate(3,3)"
    d="M12 0zm-.262 3.678h2.584a.343.343 0 0 1 .33.435l-2.03 6.918l1.905-.582l-.408 1.385l-1.924.56l-1.248 4.214h6.676a.343.343 0 0 1 .328.437l-.582 2a.459.459 0 0 1-.44.33H6.733l1.723-5.822l-1.906.58l.42-1.361l1.91-.58l2.422-8.18a.456.456 0 0 1 .437-.334z" />
</svg>