<!--- <a href="https://www.pscp.tv/"> --->
<svg id="circle-svg-periscope-blue"
  width="35" height="35"
  viewBox="0 0 300 300"
  version="1.1"
  xmlns="http://www.w3.org/2000/svg"
  role="img" aria-hidden="true" focusable="false"
  preserveAspectRatio="xMidYMid meet">
  <!--- Color Classes --->
  <style type="text/css">
    .color-periscope-blue {
      fill: #3FA4C4;
    }
    .color-white {
      fill: #ffffff;
    }
  </style>
  <!--- Background --->
  <circle id="bg-periscope-blue"
    class="color-periscope-blue"
    cx="150" cy="150" r="150" />
  <!--- Logo --->
  <g id="logo-periscope-group-blue"
    transform="scale(1,1) translate(23,-4)">
    <path id="logo-periscope-outer-blue"
      class="color-white"
      d="M183.479 141.472c0 42.229-45.416 88.634-56.792 88.634S69.896 183.7 69.896 141.472c0-31.366 25.426-56.792 56.792-56.792s56.791 25.426 56.791 56.792z" />
    <path id="logo-periscope-inner-blue"
      class="color-periscope-blue"
      d="M126.687 107.201c-2.73 0-5.384.327-7.931.928 4.619 2.265 7.807 6.999 7.807 12.489 0 7.686-6.23 13.917-13.917 13.917-7.398 0-13.433-5.779-13.874-13.067a34.297 34.297 0 0 0-6.543 20.191c0 19.031 15.427 34.459 34.458 34.459s34.458-15.428 34.458-34.459c0-19.031-15.427-34.458-34.458-34.458z" />
  </g>
</svg>