<!-- <a href="https://runescape.com/"> -->
<svg id="circle-svg-runescape-blue"
  width="35" height="35"
  viewBox="0 0 64 64"
  version="1.1"
  xmlns="http://www.w3.org/2000/svg"
  role="link button img"
  preserveAspectRatio="xMidYMid meet">
  <title>RuneScape</title>
  <!-- Color Classes -->
  <style type="text/css">
    .color-runescape-blue {
      fill: #38738f;
    }
    .color-white {
      fill: #ffffff;
    }
  </style>
  <!-- Background -->
  <circle id="bg-runescape-blue"
    class="color-runescape-blue"
    cx="32" cy="32" r="32" />
  <!-- Logo -->
  <g id="logo-runescape-group-blue"
    class="color-white"
    transform="scale(0.9,0.9) translate(2,4)">
    <path id="logo-runescape-sword-blue"
      d="m 24,22 h 6 V 48.59091 L 27,52 24,48.59091 Z" />
    <path id="logo-runescape-hilt-blue"
      d="m 25.101562,20 v 0.0118 c -1.13473,0.0084 -2.024666,0.02828 -3.074218,0.269532 C 20.959692,20.526676 20,20.734652 20,22.067984 L 21.398438,23 c 0,0 0.732106,-0.818248 1.402344,-0.932016 0.766994,-0.13018 1.624992,0.30511 2.30078,0.73047 v 0.601562 H 26 28 c 0,0 1.919178,-1.5493 3.199218,-1.332032 C 31.869456,22.181744 32.601562,23 32.601562,23 L 34,22.067984 C 34,20.734652 33.040308,20.526676 31.972656,20.28125 30.643068,19.975616 29.717984,20.019 28,20 h -2 z" />
    <rect id="logo-runescape-handle-blue"
      width="8" height="4"
      x="13.2" y="-29"
      transform="rotate(90)" />
    <rect id="logo-runescape-diamond-blue"
      width="4.243" height="4.243"
      x="38.89" y="4.95"
      transform="rotate(45)" />
    <path id="logo-runescape-r-blue"
      d="M 35.320312,20 C 35.72095,20.606602 36,21.348942 36,22.066406 c 3.7e-5,0.543865 -0.421111,1.064296 -0.813,1.441406 C 36.830386,24.652684 38,26.723686 38,28.765624 38,32.549976 35.890318,32.882736 32,34 34.33469,39.707224 38.987738,44.757106 43.589844,47.371094 47.516188,49.744754 51.114174,51.414916 56,52 50.60431,45.413668 42.201398,42.514394 38,36 40.807754,34.527596 44,33.25617 44,28.390624 44,24.44354 40.399608,20 37.722656,20 Z" />
    <path id="logo-runescape-butt-blue"
      d="m 30,12 c 0,1.656854 -1.343146,3 -3,3 -1.656854,0 -3,-1.343146 -3,-3 z" />
  </g>
</svg>