<!-- <a href="https://runescape.com/"> -->
<svg id="circle-svg-osrs-grey"
  width="35" height="35"
  viewBox="0 0 36 36"
  version="1.1"
  xmlns="http://www.w3.org/2000/svg"
  role="link button img"
  preserveAspectRatio="xMidYMid meet">
  <title>OSRS</title>
  <!-- Color Classes -->
  <style type="text/css">
    .color-osrs-grey {
      fill: #37474F;
    }
    .color-white {
      fill: #ffffff;
    }
  </style>
  <!-- Background -->
  <circle id="bg-osrs-grey"
    class="color-osrs-grey"
    cx="18" cy="18" r="18" />
  <!-- Logo -->
  <path id="logo-osrs-grey"
    class="color-white"
    transform="scale(0.8,0.8) translate(-28,-26)"
    d="M51.5524512,32.0006038 C58.000973,32.0497121 59.932391,38.4647829 60.6079106,43.9127138 C61.4128213,50.4041675 60.9656022,55.7346432 59.3845937,58.6836477 C57.6668179,61.887759 56.0304835,62.7709991 51.4666132,62.9575061 C48.308037,63.0865865 47.5942741,62.9645678 45.7721182,61.9839213 C42.3184736,60.12525 40.823297,57.3364987 39.7585269,50.7674677 C39.3929798,48.5122463 39.0555021,44.8773158 39.008581,42.689843 C38.9505881,39.9861786 39.1359089,38.0322499 41.1659844,35.8420001 C43.9627243,32.8245975 48.0497645,31.9739293 51.5524512,32.0006038 Z M53.9903319,42.0513246 C51.101469,40.9975048 45.8045633,40.4675032 45.1457762,41.5734301 C44.925821,41.9426763 44.7563873,42.6604077 44.9196042,42.8035823 C45.0983831,42.960408 46.2578498,42.506336 46.1598322,42.9485567 C45.9234103,44.015208 44.6436242,49.3520858 44.9196042,54.0160008 C44.9196042,54.7968442 45.9843758,55.4452274 47.2019347,55.6331216 C47.8739263,55.7368236 47.4022204,53.4115947 47.6255877,51.7379298 C48.5501296,52.8223256 49.1899498,54.6989294 52.7453181,55.94618 C54.3089036,56.1050562 56.7574268,54.8496105 56.7574268,54.4619078 C56.8965996,53.7144325 54.7303031,53.0211575 52.2592143,51.7379298 C50.0700614,50.6011103 48.8530495,48.5584347 49.1899498,48.5584347 C50.2601314,48.5584347 53.726104,49.3396416 56.1066736,48.0656914 C56.8535303,47.6660147 56.975769,46.402476 56.7574268,45.3980733 C56.408918,43.7948865 55.9638102,42.771224 53.9903319,42.0513246 Z M49.3239398,43.96 C51.7936884,43.96 54.7821605,44.8971535 53.5799777,45.8421508 C53.1982808,46.1421904 50.2912275,46.96 49.1426678,46.96 C48.5723726,46.96 48.9648311,43.96 49.3239398,43.96 Z" />
</svg>