<!-- <a href="https://stackoverflow.com/"> -->
<svg id="circle-svg-stackoverflow-orange"
  width="35" height="35"
  viewBox="0 0 24 24"
  version="1.1"
  xmlns="http://www.w3.org/2000/svg"
  role="link button img"
  preserveAspectRatio="xMidYMid meet">
  <title>Stack Overflow</title>
  <!-- Color Classes -->
  <style type="text/css">
    .color-stackoverflow-orange {
      fill: #F47F24;
    }
    .color-white {
      fill: #ffffff;
    }
  </style>
  <!-- Background -->
  <circle id="bg-stackoverflow-orange"
    class="color-stackoverflow-orange"
    cx="12" cy="12" r="12" />
  <!-- Logo -->
  <g id="logo-stackoverflow-group-orange"
    class="color-white"
    transform="scale(0.617,0.617) translate(7.45,7.45)">
    <path id="logo-stackoverflow-bottom-orange"
      d="M18.372 20.222v-5.358h1.79V22H4v-7.136h1.79v5.358h12.582z" />
    <path id="logo-stackoverflow-top-orange"
      d="M7.768 14.356l8.79 1.824l.372-1.755L8.14 12.6l-.372 1.756zm1.162-4.157l8.14 3.764l.744-1.617l-8.14-3.787l-.744 1.64zm2.256-3.973l6.907 5.705l1.14-1.363l-6.907-5.704l-1.14 1.362zM15.651 2L14.21 3.062l5.35 7.16L21 9.159L15.651 2zm-8.07 16.42h8.977v-1.778H7.581v1.778z" />
  </g>
</svg>