<!-- <a href="https://triller.co/"> -->
<svg id="circle-svg-triller-red"
  width="35" height="35"
  viewBox="0 0 512 512"
  version="1.1"
  xmlns="http://www.w3.org/2000/svg"
  role="link button img"
  preserveAspectRatio="xMidYMid meet">
  <title>Triller</title>
  <!-- Color Classes -->
  <style type="text/css">
    .color-triller-red {
      fill: #FF3960;
    }
    .color-white {
      fill: #ffffff;
    }
  </style>
  <!-- Background -->
  <circle id="bg-triller-red"
    class="color-triller-red"
    cx="256" cy="256" r="256" />
  <!-- Logo -->
  <g id="logo-triller-red-group"
    class="color-white"
    transform="scale(0.75,0.75) translate(90,90)">
    <path id="triller-red-1"
      d="M230.354 89.089C142.25 101.383 66.588 198.642 103.388 307.508l113.16-194.372 5.214 3.008 40.566-70.215-5.306-3.062-26.668 46.222z" />
    <path id="triller-red-2"
      d="M221.761 116.144c37.779-5.497 73.767-1.389 107.117 16.859L177.299 395.372l5.235 3.021-40.906 70.804-4.997-2.884 27.246-47.159c-30.049-19.664-54.332-46.073-67.889-85.03l125.773-217.98z" />
    <path id="triller-red-3"
      d="M348.153 111.869L182.134 398.516c39.29 18.981 74.609 21.558 107.868 15.624l112.652-194.605 5.088 2.935 40.539-70.169-4.999-2.884-27.91 48.309c-12.549-38.468-37.05-64.993-67.218-85.854l-.001-.003z" />
    <path id="triller-red-4"
      d="M281.958 441.68l125.783-219.211c35.48 103.826-32.196 204.221-125.783 219.211z" />
  </g>
</svg>