<!--- <a href="https://account.xbox.com"> --->
<svg id="circle-svg-xbox-gradient-green"
  width="35" height="35"
  viewBox="0 0 32 32"
  version="1.1"
  xmlns="http://www.w3.org/2000/svg"
  xmlns:xlink="http://www.w3.org/1999/xlink"
  role="link button img"
  preserveAspectRatio="xMidYMid meet">
  <!--- Color Classes --->
  <style type="text/css">
    .color-xbox-gradient-green {
      fill: url(#color-gradient-green-xbox);
    }
    .color-white {
      fill: #ffffff;
    }
  </style>
  <!--- Define the color gradient used for the background. --->
  <defs>
    <linearGradient id="color-gradient-green-xbox"
      x1="50%" y1="0%" x2="50%" y2="100%">
      <stop stop-color="#107c10" offset="0%" />
      <stop stop-color="#0b560b" offset="100%" />
    </linearGradient>
  </defs>
  <!--- Logo --->
  <circle id="logo-xbox-inner-white-gradient-green"
    class="color-white"
    cx="16" cy="16" r="16" />
  <!--- Background --->
  <path id="logo-xbox-outer-green-gradient-green"
    class="color-xbox-gradient-green"
    d="M5.469 28.041A15.907 15.907 0 0 0 16 32c4.036 0 7.719-1.489 10.536-3.959c2.5-2.547-5.755-11.609-10.536-15.219c-4.776 3.609-13.036 12.672-10.531 15.219zm14.88-19.202c3.333 3.948 9.979 13.749 8.104 17.213A15.924 15.924 0 0 0 32 16.005c0-4.453-1.817-8.484-4.76-11.38c0 0-.037-.032-.109-.057a1.056 1.056 0 0 0-.376-.057c-.785 0-2.645.577-6.405 4.328zM4.869 4.568c-.072.025-.109.057-.115.057a15.933 15.933 0 0 0-4.755 11.38c0 3.807 1.328 7.297 3.547 10.041c-1.864-3.468 4.771-13.265 8.109-17.208C7.895 5.082 6.03 4.51 5.244 4.51a.901.901 0 0 0-.376.063zM16 4.735s-3.927-2.297-6.995-2.407c-1.203-.041-1.937.391-2.027.453C9.838.86 12.879 0 15.978 0h.021c3.115 0 6.14.86 9.021 2.781c-.089-.063-.819-.495-2.027-.453c-3.068.109-6.995 2.401-6.995 2.401z" />
</svg>